<svg width="199" height="118" viewBox="0 0 199 118" fill="none" xmlns="http://www.w3.org/2000/svg">
<path d="M97.5 90.5C104.956 90.5 111 96.5442 111 104C111 111.456 104.956 117.5 97.5 117.5C90.0442 117.5 84 111.456 84 104C84 96.5442 90.0442 90.5 97.5 90.5ZM97.2002 93.5C91.5669 93.5 87 98.0669 87 103.7C87.0001 109.333 91.567 113.9 97.2002 113.9C102.833 113.9 107.4 109.333 107.4 103.7C107.4 98.067 102.833 93.5001 97.2002 93.5Z" fill="#D9D9D9"/>
<path d="M84.041 94.9717L84.0605 94.999L84.042 95.0273C83.0395 96.5311 82.1692 97.6496 81.6094 99.1426C81.0503 100.633 80.8002 102.501 81.0498 105.496L81.0547 105.55H77.4502V105.5C77.4502 105.316 77.419 105.015 77.374 104.614C77.3291 104.215 77.2706 103.72 77.2158 103.153C77.1063 102.019 77.0126 100.595 77.0752 99.0605C77.2004 95.9932 77.9517 92.478 80.4648 89.9648L80.5068 89.9229L84.041 94.9717ZM67.0488 90.9902C67.2994 92.2431 67.3738 93.3356 68.2832 95.3164C69.1935 97.299 70.9408 100.171 74.54 104.97L74.5996 105.05H1L0.989258 104.951L66.9893 90.9512L67.0391 90.9404L67.0488 90.9902ZM134.011 91.4512L198.011 104.951L198 105.05H125.387L125.463 104.967C129.464 100.565 132.954 96.4746 133.951 91.4902L133.961 91.4404L134.011 91.4512ZM128.05 89.4941C129.053 98.5243 123.03 103.04 120.027 105.042L119.966 104.963C125.365 99.9742 126.95 92.4922 127.952 89.4844L128.05 89.4941ZM114.033 90.4619C116.048 92.2248 116.925 95.3668 117.3 98.2432C117.675 101.122 117.55 103.753 117.55 104.5V104.541L117.509 104.549L117.507 104.55C117.506 104.55 117.503 104.55 117.501 104.551C117.496 104.552 117.488 104.553 117.479 104.555C117.459 104.558 117.43 104.563 117.393 104.569C117.318 104.582 117.21 104.601 117.078 104.62C116.814 104.659 116.453 104.706 116.066 104.737C115.68 104.769 115.266 104.784 114.896 104.761C114.527 104.737 114.194 104.674 113.975 104.543L113.95 104.528V104.5C113.95 102.498 114.074 101.004 113.451 98.5117C112.955 96.5261 111.964 95.5341 110.965 94.5352L110.934 94.5049L113.992 90.4268L114.033 90.4619ZM78.0498 67.9941L79.5479 80.4844C79.5498 80.4883 79.553 80.4937 79.5566 80.501C79.5643 80.5165 79.5751 80.5399 79.5898 80.5703C79.6192 80.631 79.6622 80.7208 79.7168 80.8379C79.8264 81.0727 79.9832 81.4174 80.1709 81.8555C80.5463 82.7315 81.0474 83.9829 81.5479 85.4844L81.5586 85.5186L81.5303 85.54C74.3798 90.9029 73.6359 97.0639 73.5586 98.2842C73.5555 98.3564 73.5527 98.429 73.5498 98.502L73.543 98.6709L73.457 98.5254C63.9432 82.5019 71.4505 70.9684 77.9795 67.9551L78.041 67.9258L78.0498 67.9941ZM122.539 72.4688C123.547 73.7286 124.236 75.7386 124.635 78.085C125.034 80.4331 125.144 83.1248 124.987 85.7529C124.831 88.3807 124.409 90.9473 123.743 93.0459C123.078 95.1418 122.167 96.782 121.027 97.542L120.96 97.4707C121.954 96.1041 122.608 94.2367 123.014 92.1074C123.419 89.9788 123.575 87.5917 123.575 85.1875C123.575 80.3788 122.95 75.5063 122.45 72.5078L122.419 72.3193L122.539 72.4688ZM116.529 72.459C120.049 74.9729 121.175 79.4936 121.3 83.6855C121.425 87.8786 120.55 91.7611 120.047 93.0186L120.005 93.1221L119.955 93.0225C119.209 91.531 117.965 90.2025 116.592 88.9746C115.905 88.361 115.187 87.7733 114.484 87.2031C113.782 86.6331 113.093 86.0804 112.467 85.5381L112.442 85.5166L112.452 85.4854L116.452 72.4854L116.473 72.4189L116.529 72.459ZM91.6787 76.6387C94.122 76.2001 96.2569 76.4502 98 76.4502H98.0498V87.5498H98C96.0057 87.5498 93.8866 87.9241 92.0801 88.6094C90.2724 89.2951 88.7846 90.2895 88.043 91.5254L87.9932 91.6084L87.9541 91.5205C85.9542 87.0208 85.4535 86.0196 83.4531 81.0186L83.4404 80.9863L83.4658 80.9629C86.4727 78.2066 89.2318 77.0779 91.6787 76.6387ZM90 71.5918C92.2206 70.9278 94.3518 70.8031 97.502 70.9502C103.561 71.2331 108.022 72.9535 111.532 75.9619L111.554 75.9795L111.55 76.0068C111.299 77.7623 110.672 79.7667 109.921 81.5195C109.17 83.2709 108.292 84.7782 107.535 85.5352L107.407 85.6631L107.451 85.4883C107.953 83.4825 108.944 81.5014 109.445 77.5254C109.437 77.5202 109.426 77.5143 109.413 77.5068C109.373 77.4831 109.314 77.4478 109.235 77.4033C109.078 77.3142 108.846 77.1863 108.547 77.0322C107.948 76.7241 107.079 76.3109 106.001 75.8896C103.844 75.0468 100.849 74.173 97.498 74.0498C93.7593 73.9124 90.0174 75.1593 87.208 76.4424C85.8039 77.0836 84.6335 77.7331 83.8145 78.2227C83.405 78.4674 83.0835 78.6721 82.8643 78.8154C82.7547 78.8871 82.6708 78.944 82.6143 78.9824C82.586 79.0016 82.5641 79.0165 82.5498 79.0264C82.5429 79.0311 82.5377 79.0347 82.5342 79.0371C82.5325 79.0383 82.5312 79.0394 82.5303 79.04L82.5293 79.041H82.5283L82.4619 79.0879L82.4502 79.0068V79.002L82.4492 79.001V78.9951L82.4482 78.9941V78.9883L82.4473 78.9873V78.9814H82.4463V78.9746L82.4453 78.9736V78.9678L82.4443 78.9668V78.9609L82.4434 78.96V78.9541L82.4424 78.9521V78.9473L82.4414 78.9453V78.9404L82.4404 78.9385V78.9336L82.4395 78.9326V78.9277L82.4385 78.9258V78.9209L82.4375 78.9189V78.9141L82.4365 78.9121V78.9062L82.4355 78.9043V78.9004L82.4346 78.8984V78.8945L82.4336 78.8916V78.8857L82.4326 78.8838V78.8789L82.4316 78.877V78.8721L82.4307 78.8701V78.8652L82.4297 78.8623V78.8604L82.4287 78.8574V78.8525L82.4277 78.8496V78.8447L82.4268 78.8418V78.8389L82.4258 78.8369V78.8311L82.4248 78.8281V78.8252L82.4238 78.8223V78.8193L82.4229 78.8164V78.8105L82.4219 78.8076V78.8047L82.4209 78.8018V78.7988C82.4207 78.7978 82.4201 78.796 82.4199 78.7949V78.792C82.4198 78.791 82.4191 78.7901 82.4189 78.7891V78.7861C82.4188 78.785 82.4181 78.7833 82.418 78.7822V78.7793C82.4178 78.7782 82.4172 78.7765 82.417 78.7754V78.7725C82.4168 78.7713 82.4162 78.7697 82.416 78.7686V78.7656C82.4159 78.7645 82.4152 78.7629 82.415 78.7617V78.7588C82.4149 78.7576 82.4142 78.7561 82.4141 78.7549V78.752C82.4139 78.7508 82.4133 78.7492 82.4131 78.748C82.4129 78.7468 82.4133 78.7454 82.4131 78.7441C82.4129 78.743 82.4123 78.7414 82.4121 78.7402V78.7373C82.4119 78.7361 82.4113 78.7346 82.4111 78.7334C82.411 78.7322 82.4113 78.7307 82.4111 78.7295C82.411 78.7282 82.4103 78.7269 82.4102 78.7256C82.41 78.7243 82.4103 78.723 82.4102 78.7217L82.4082 78.7139C82.408 78.7126 82.4084 78.7112 82.4082 78.71C82.408 78.7087 82.4074 78.7074 82.4072 78.7061C82.407 78.7048 82.4074 78.7034 82.4072 78.7021C82.407 78.7009 82.4064 78.6995 82.4062 78.6982C82.4061 78.697 82.4064 78.6955 82.4062 78.6943C82.4061 78.693 82.4055 78.6908 82.4053 78.6895C82.4051 78.6882 82.4045 78.6868 82.4043 78.6855C82.4041 78.6843 82.4045 78.6829 82.4043 78.6816C82.4041 78.6802 82.4035 78.6782 82.4033 78.6768C82.4031 78.6755 82.4025 78.6741 82.4023 78.6729C82.4022 78.6716 82.4025 78.6702 82.4023 78.6689C82.4021 78.6675 82.4016 78.6655 82.4014 78.6641C82.4012 78.6628 82.4016 78.6614 82.4014 78.6602C82.4012 78.6587 82.4006 78.6568 82.4004 78.6553C82.4002 78.654 82.3996 78.6527 82.3994 78.6514C82.3992 78.6499 82.3996 78.648 82.3994 78.6465C82.3992 78.645 82.3987 78.6431 82.3984 78.6416C82.3982 78.6403 82.3977 78.639 82.3975 78.6377C82.3972 78.6362 82.3977 78.6344 82.3975 78.6328C82.3972 78.6313 82.3967 78.6295 82.3965 78.6279C82.3963 78.6266 82.3957 78.6253 82.3955 78.624C82.3953 78.6226 82.3957 78.6206 82.3955 78.6191L82.3926 78.6045C82.3924 78.6029 82.3928 78.6012 82.3926 78.5996L82.3906 78.5898C82.3904 78.5883 82.3909 78.5865 82.3906 78.585C82.3904 78.5834 82.3899 78.5816 82.3896 78.5801C82.3894 78.5784 82.3889 78.5759 82.3887 78.5742C82.3885 78.5727 82.3879 78.5709 82.3877 78.5693C82.3875 78.5677 82.3879 78.5661 82.3877 78.5645C82.3875 78.5628 82.3869 78.5612 82.3867 78.5596C82.3865 78.5578 82.386 78.5555 82.3857 78.5537C82.3855 78.5521 82.385 78.5505 82.3848 78.5488C82.3845 78.5471 82.384 78.5447 82.3838 78.543C82.3836 78.5414 82.384 78.5397 82.3838 78.5381C82.3835 78.5363 82.3831 78.534 82.3828 78.5322C82.3826 78.5306 82.3821 78.529 82.3818 78.5273C82.3816 78.5255 82.3811 78.5233 82.3809 78.5215C82.3806 78.5199 82.3811 78.5182 82.3809 78.5166L82.3779 78.499C82.3777 78.4974 82.3772 78.4958 82.377 78.4941C82.3767 78.4923 82.3762 78.4901 82.376 78.4883C82.3757 78.4864 82.3762 78.4843 82.376 78.4824L82.3701 78.4473L82.3691 78.4404C82.3689 78.4385 82.3694 78.4365 82.3691 78.4346C82.3689 78.4326 82.3684 78.4307 82.3682 78.4287L82.3672 78.4219L82.3652 78.4102L82.3643 78.4033C82.364 78.4014 82.3636 78.3994 82.3633 78.3975L82.3613 78.3838C82.361 78.3818 82.3606 78.3799 82.3604 78.3779L82.3574 78.3574C82.3571 78.3555 82.3567 78.3535 82.3564 78.3516L82.3516 78.3174C82.3512 78.3151 82.3509 78.3119 82.3506 78.3096L82.3477 78.2891C82.3473 78.2867 82.347 78.2836 82.3467 78.2812L82.3447 78.2676C82.3444 78.2652 82.3441 78.2622 82.3438 78.2598L82.3428 78.2529L82.3408 78.2373L82.3398 78.2305C82.3395 78.228 82.3392 78.2252 82.3389 78.2227C82.3385 78.2201 82.3373 78.2174 82.3369 78.2148C82.3366 78.2124 82.3363 78.2095 82.3359 78.207L82.335 78.2002L82.3311 78.1689C82.3307 78.1663 82.3295 78.1628 82.3291 78.1602L82.3262 78.1367C82.3258 78.134 82.3256 78.1307 82.3252 78.1279C82.3248 78.1253 82.3246 78.1227 82.3242 78.1201C82.3238 78.1175 82.3226 78.1149 82.3223 78.1123C82.3219 78.1096 82.3217 78.1063 82.3213 78.1035C82.3209 78.1009 82.3207 78.0983 82.3203 78.0957C82.3199 78.0929 82.3197 78.0897 82.3193 78.0869C82.3189 78.0841 82.3178 78.0809 82.3174 78.0781C82.317 78.0755 82.3168 78.0729 82.3164 78.0703L82.3145 78.0527C82.314 78.0499 82.3129 78.0468 82.3125 78.0439L82.3096 78.0176C82.3092 78.0147 82.308 78.0117 82.3076 78.0088L82.3057 77.9912C82.3052 77.9883 82.3041 77.9854 82.3037 77.9824C82.3033 77.9794 82.3032 77.9757 82.3027 77.9727C82.3023 77.9698 82.3022 77.9668 82.3018 77.9639C82.3013 77.9609 82.3002 77.958 82.2998 77.9551C82.2994 77.952 82.2993 77.9484 82.2988 77.9453C82.2984 77.9424 82.2983 77.9394 82.2979 77.9365C82.2974 77.9334 82.2963 77.9299 82.2959 77.9268C82.2955 77.9238 82.2953 77.9209 82.2949 77.918C82.2945 77.9149 82.2944 77.9113 82.2939 77.9082C82.2935 77.905 82.2924 77.9016 82.292 77.8984C82.2915 77.8953 82.2915 77.8918 82.291 77.8887C82.2906 77.8857 82.2895 77.8829 82.2891 77.8799L82.2871 77.8604C82.2867 77.8572 82.2856 77.8537 82.2852 77.8506C82.2847 77.8475 82.2846 77.844 82.2842 77.8408C82.2837 77.8375 82.2827 77.8334 82.2822 77.8301C82.2818 77.8269 82.2817 77.8235 82.2812 77.8203C82.2808 77.8171 82.2798 77.8138 82.2793 77.8105C82.2788 77.8073 82.2788 77.804 82.2783 77.8008C82.2778 77.7974 82.2768 77.7934 82.2764 77.79C82.2759 77.7868 82.2759 77.7835 82.2754 77.7803C82.2749 77.777 82.2739 77.7738 82.2734 77.7705C82.273 77.7671 82.273 77.7632 82.2725 77.7598C82.272 77.7563 82.271 77.7525 82.2705 77.749C82.27 77.7458 82.27 77.7425 82.2695 77.7393C82.269 77.7358 82.2681 77.732 82.2676 77.7285C82.2671 77.7251 82.2671 77.7213 82.2666 77.7178C82.2661 77.7143 82.2651 77.7105 82.2646 77.707C82.2642 77.7038 82.2641 77.7005 82.2637 77.6973C82.2632 77.6938 82.2622 77.69 82.2617 77.6865C82.2612 77.6831 82.2612 77.6792 82.2607 77.6758C82.2602 77.6723 82.2593 77.6685 82.2588 77.665C82.2583 77.6614 82.2574 77.6569 82.2568 77.6533C82.2563 77.6499 82.2564 77.6461 82.2559 77.6426C82.2554 77.639 82.2544 77.6354 82.2539 77.6318C82.2534 77.6283 82.2534 77.6247 82.2529 77.6211C82.2524 77.6174 82.2515 77.6131 82.251 77.6094C82.2505 77.6058 82.2495 77.6022 82.249 77.5986C82.2485 77.5951 82.2486 77.5915 82.248 77.5879L82.2441 77.5645C82.2436 77.5609 82.2437 77.5573 82.2432 77.5537L82.2393 77.5303C82.2387 77.5265 82.2388 77.5223 82.2383 77.5186C82.2377 77.5148 82.2369 77.5106 82.2363 77.5068C82.2358 77.5032 82.2349 77.4997 82.2344 77.4961C82.2338 77.4922 82.233 77.4873 82.2324 77.4834C82.2319 77.4797 82.232 77.4754 82.2314 77.4717L82.2275 77.4482C82.227 77.4444 82.2271 77.4404 82.2266 77.4365C82.226 77.4325 82.2252 77.4279 82.2246 77.4238L82.2207 77.4004C82.2201 77.3963 82.2193 77.3918 82.2188 77.3877C82.2182 77.3836 82.2184 77.3791 82.2178 77.375C82.2172 77.3711 82.2164 77.3672 82.2158 77.3633L82.208 77.3125C82.2075 77.3086 82.2076 77.3047 82.207 77.3008L82.2051 77.2871L82.1973 77.2363L82.1953 77.2227C82.1947 77.2184 82.194 77.2142 82.1934 77.21L82.1914 77.1963C82.1908 77.1921 82.191 77.1878 82.1904 77.1836L82.1865 77.1562C82.1859 77.152 82.1852 77.1478 82.1846 77.1436L82.1729 77.0615C82.1722 77.0569 82.1716 77.0515 82.1709 77.0469L82.167 77.0195C82.1663 77.0148 82.1647 77.0096 82.1641 77.0049L82.1621 76.9912C82.1614 76.9865 82.1608 76.9813 82.1602 76.9766L82.1582 76.9629L82.1484 76.8896C82.1478 76.8849 82.1462 76.8798 82.1455 76.875L82.1396 76.8311C82.1389 76.8261 82.1384 76.8204 82.1377 76.8154C82.137 76.8106 82.1364 76.8057 82.1357 76.8008C82.135 76.7959 82.1335 76.7911 82.1328 76.7861L82.1289 76.7549C82.1282 76.75 82.1277 76.7451 82.127 76.7402C82.1262 76.7351 82.1248 76.7298 82.124 76.7246L82.1182 76.6777C82.1174 76.6726 82.116 76.6673 82.1152 76.6621L82.1113 76.6309C82.1106 76.6257 82.1091 76.6205 82.1084 76.6152C82.1076 76.6099 82.1072 76.604 82.1064 76.5986C82.1057 76.5934 82.1052 76.5882 82.1045 76.583C82.1037 76.5777 82.1023 76.5718 82.1016 76.5664C82.1008 76.5612 82.1004 76.556 82.0996 76.5508C82.0988 76.5454 82.0984 76.5396 82.0977 76.5342C82.0969 76.5289 82.0955 76.5238 82.0947 76.5186C82.094 76.5132 82.0935 76.5074 82.0928 76.502C82.092 76.4965 82.0906 76.4908 82.0898 76.4854L82.0859 76.4521C82.0851 76.4466 82.0838 76.4411 82.083 76.4355C82.0822 76.43 82.0818 76.4245 82.0811 76.4189C82.0803 76.4134 82.0789 76.4079 82.0781 76.4023C82.0773 76.3967 82.077 76.3904 82.0762 76.3848C82.0754 76.3792 82.074 76.3737 82.0732 76.3682C82.0725 76.3627 82.0721 76.3571 82.0713 76.3516C82.0705 76.3459 82.0692 76.3397 82.0684 76.334C82.0676 76.3285 82.0672 76.3229 82.0664 76.3174C82.0656 76.3117 82.0643 76.3055 82.0635 76.2998C82.0627 76.294 82.0623 76.288 82.0615 76.2822C82.0607 76.2765 82.0594 76.2704 82.0586 76.2646C82.0578 76.259 82.0575 76.2528 82.0566 76.2471L82.0508 76.2119C82.05 76.2062 82.0496 76.2001 82.0488 76.1943C82.048 76.1885 82.0467 76.1826 82.0459 76.1768C82.0451 76.1709 82.0448 76.165 82.0439 76.1592C82.0431 76.1534 82.0418 76.1474 82.041 76.1416C82.0402 76.1356 82.0389 76.1291 82.0381 76.123C82.0373 76.1172 82.037 76.1113 82.0361 76.1055L82.0303 76.0684C82.0294 76.0625 82.0292 76.0566 82.0283 76.0508L82.0225 76.0137C82.0216 76.0075 82.0214 76.0013 82.0205 75.9951L82.0146 75.958C82.0138 75.9519 82.0136 75.9456 82.0127 75.9395C82.0118 75.9332 82.0107 75.9262 82.0098 75.9199L82.0039 75.8828C82.003 75.8765 82.0019 75.8696 82.001 75.8633C82.0001 75.8571 81.9999 75.8509 81.999 75.8447L81.9844 75.7471C81.9835 75.7407 81.9833 75.7339 81.9824 75.7275L81.9736 75.6689L81.9707 75.6484C81.9698 75.6419 81.9687 75.6354 81.9678 75.6289L81.9648 75.6084C81.9639 75.6019 81.9628 75.5954 81.9619 75.5889L81.9502 75.5068L81.9453 75.4736L81.9756 75.457C85.4752 73.4573 87.7808 72.2554 90 71.5918ZM105.545 13.4775C111.549 25.4859 117.551 46.4968 112.549 73.0088L112.538 73.0684L112.482 73.0469C105.979 70.5455 103.662 69.1661 97.499 69.0498C90.967 68.9266 88.5233 70.5443 81.5195 73.5459L81.4531 73.5742L81.4502 73.502C80.4502 52.0013 79.4496 36.9903 90.4551 13.4785L90.4678 13.4502H105.531L105.545 13.4775ZM146.045 53.0225C145.918 53.2773 145.672 53.6324 145.325 54.0752C144.978 54.5186 144.526 55.0525 143.982 55.666C142.896 56.8933 141.442 58.4413 139.724 60.2227C136.286 63.7855 131.785 68.2853 127.035 73.0352L127 73.0703L126.965 73.0352C126.073 72.1535 125.622 71.5899 124.958 70.5264L124.934 70.4883L124.97 70.4609C131.718 65.2122 134.342 62.7131 136.591 60.5889C138.842 58.4626 140.719 56.7105 145.971 52.959L146.045 53.0225ZM52.0273 53.958C53.531 54.9604 56.1589 57.2136 59.4082 60.1504C62.6586 63.0882 66.5342 66.7139 70.5342 70.4639L70.5635 70.4912L70.543 70.5264C70.0359 71.3643 69.6996 71.8127 69.0371 72.5342L69 72.5742L68.9629 72.5332C66.4633 69.7837 62.4644 65.6598 58.9639 61.9717C57.2139 60.1279 55.5884 58.3932 54.3379 56.9941C53.7126 56.2947 53.1804 55.6787 52.7734 55.1748C52.3675 54.6722 52.0828 54.2779 51.9551 54.0225L51.8711 53.8535L52.0273 53.958ZM101.577 15.5771C108.039 35.5384 106.548 55.9816 104.056 67.9736C106.766 69.4955 108.151 70.1361 110.961 70.9365C114.304 53.9602 112.442 32.51 104.463 16.54C103.352 16.107 102.996 16.0474 101.577 15.5771ZM97.5 33.5C93.3579 33.5 90 36.8579 90 41C90 45.1421 93.3579 48.5 97.5 48.5C101.642 48.5 105 45.1421 105 41C105 36.8579 101.642 33.5 97.5 33.5ZM97.541 0.97168L104.041 10.4717L104.095 10.5498H91.4092L91.458 10.4736L97.458 0.973633L97.498 0.90918L97.541 0.97168Z" fill="#FEFEFE"/>
</svg>
