<svg width="100" height="100" viewBox="0 0 100 100" fill="none" xmlns="http://www.w3.org/2000/svg">
<rect x="16.25" y="5.25" width="67.5" height="68.5" rx="8.75" stroke="black" stroke-width="2.5"/>
<path d="M26 13.25H74C74.9665 13.25 75.75 14.0335 75.75 15V24.4004C75.7498 25.3667 74.9664 26.1504 74 26.1504H68.2803L68.2021 26.1602C63.8305 26.7167 60.9506 27.7532 59.2744 29.9043C57.6282 32.017 57.3896 34.9175 57.3896 38.4004V51.9004L59.3896 50.4004L59.3984 50.3936C60.852 49.2832 63.5817 47.2089 66.6016 46.1836C68.1579 45.6552 70.3017 45.2029 72.1016 45.6611C72.967 45.8815 73.7386 46.3079 74.3564 47.042C74.9714 47.7727 75.4995 48.8884 75.75 50.5967V64C75.75 64.9665 74.9665 65.75 74 65.75H26C25.0335 65.75 24.25 64.9665 24.25 64V15C24.25 14.0335 25.0335 13.25 26 13.25Z" stroke="black" stroke-width="2.5"/>
<path d="M59.528 54.637C59.504 54.523 59.477 54.415 59.447 54.313C59.423 54.211 59.393 54.115 59.357 54.025L60.167 53.881C60.173 53.965 60.185 54.067 60.203 54.187C60.221 54.301 60.236 54.406 60.248 54.502C60.26 54.562 60.287 54.703 60.329 54.925C60.371 55.141 60.422 55.414 60.482 55.744C60.548 56.074 60.62 56.431 60.698 56.815C60.776 57.199 60.854 57.586 60.932 57.976C61.01 58.366 61.082 58.732 61.148 59.074C61.214 59.416 61.271 59.707 61.319 59.947C61.373 60.187 61.409 60.349 61.427 60.433C61.457 60.565 61.49 60.703 61.526 60.847C61.562 60.991 61.601 61.126 61.643 61.252L60.824 61.405C60.8 61.255 60.779 61.111 60.761 60.973C60.743 60.829 60.719 60.691 60.689 60.559C60.677 60.481 60.647 60.325 60.599 60.091C60.557 59.851 60.503 59.563 60.437 59.227C60.371 58.891 60.299 58.531 60.221 58.147C60.143 57.757 60.065 57.37 59.987 56.986C59.915 56.602 59.846 56.245 59.78 55.915C59.714 55.585 59.657 55.306 59.609 55.078C59.567 54.85 59.54 54.703 59.528 54.637ZM56.99 55.933C57.098 55.927 57.212 55.921 57.332 55.915C57.458 55.903 57.593 55.888 57.737 55.87C57.875 55.852 58.067 55.828 58.313 55.798C58.559 55.762 58.835 55.723 59.141 55.681C59.453 55.633 59.774 55.582 60.104 55.528C60.44 55.474 60.764 55.423 61.076 55.375C61.388 55.321 61.67 55.273 61.922 55.231C62.174 55.189 62.372 55.153 62.516 55.123C62.648 55.099 62.768 55.075 62.876 55.051C62.99 55.021 63.083 54.994 63.155 54.97L63.308 55.735C63.242 55.741 63.146 55.753 63.02 55.771C62.9 55.783 62.78 55.798 62.66 55.816C62.504 55.84 62.297 55.873 62.039 55.915C61.781 55.957 61.493 56.005 61.175 56.059C60.863 56.107 60.542 56.158 60.212 56.212C59.882 56.26 59.561 56.311 59.249 56.365C58.943 56.413 58.67 56.458 58.43 56.5C58.19 56.536 58.004 56.566 57.872 56.59C57.746 56.608 57.626 56.629 57.512 56.653C57.404 56.677 57.281 56.707 57.143 56.743L56.99 55.933ZM56.963 58.534C57.071 58.528 57.2 58.519 57.35 58.507C57.5 58.489 57.635 58.471 57.755 58.453C57.917 58.435 58.133 58.405 58.403 58.363C58.679 58.321 58.988 58.273 59.33 58.219C59.678 58.159 60.035 58.099 60.401 58.039C60.773 57.979 61.133 57.919 61.481 57.859C61.829 57.799 62.147 57.745 62.435 57.697C62.729 57.643 62.963 57.601 63.137 57.571C63.311 57.541 63.464 57.511 63.596 57.481C63.728 57.451 63.842 57.424 63.938 57.4L64.082 58.156C63.992 58.162 63.875 58.177 63.731 58.201C63.593 58.219 63.44 58.243 63.272 58.273C63.074 58.303 62.825 58.342 62.525 58.39C62.231 58.438 61.91 58.492 61.562 58.552C61.214 58.606 60.857 58.663 60.491 58.723C60.131 58.777 59.783 58.834 59.447 58.894C59.111 58.948 58.811 58.999 58.547 59.047C58.283 59.089 58.073 59.125 57.917 59.155C57.743 59.185 57.59 59.212 57.458 59.236C57.332 59.26 57.221 59.287 57.125 59.317L56.963 58.534ZM66.314 54.835C66.494 54.841 66.647 54.847 66.773 54.853C66.899 54.853 67.013 54.853 67.115 54.853C67.187 54.853 67.319 54.853 67.511 54.853C67.703 54.853 67.934 54.853 68.204 54.853C68.48 54.853 68.774 54.853 69.086 54.853C69.398 54.853 69.707 54.853 70.013 54.853C70.325 54.853 70.616 54.853 70.886 54.853C71.156 54.853 71.384 54.853 71.57 54.853C71.756 54.853 71.882 54.853 71.948 54.853C72.044 54.853 72.164 54.853 72.308 54.853C72.458 54.847 72.602 54.841 72.74 54.835C72.734 54.943 72.728 55.06 72.722 55.186C72.722 55.306 72.722 55.423 72.722 55.537C72.722 55.597 72.722 55.717 72.722 55.897C72.722 56.071 72.722 56.284 72.722 56.536C72.722 56.788 72.722 57.061 72.722 57.355C72.722 57.643 72.722 57.931 72.722 58.219C72.722 58.507 72.722 58.774 72.722 59.02C72.722 59.266 72.722 59.476 72.722 59.65C72.722 59.818 72.722 59.926 72.722 59.974C72.722 60.04 72.722 60.13 72.722 60.244C72.722 60.358 72.722 60.472 72.722 60.586C72.728 60.7 72.731 60.802 72.731 60.892C72.737 60.976 72.74 61.033 72.74 61.063H71.966C71.966 61.027 71.966 60.955 71.966 60.847C71.972 60.733 71.975 60.607 71.975 60.469C71.981 60.325 71.984 60.19 71.984 60.064C71.984 60.022 71.984 59.908 71.984 59.722C71.984 59.536 71.984 59.308 71.984 59.038C71.984 58.762 71.984 58.468 71.984 58.156C71.984 57.838 71.984 57.529 71.984 57.229C71.984 56.923 71.984 56.644 71.984 56.392C71.984 56.14 71.984 55.939 71.984 55.789C71.984 55.639 71.984 55.564 71.984 55.564H67.061C67.061 55.564 67.061 55.639 67.061 55.789C67.061 55.933 67.061 56.131 67.061 56.383C67.061 56.635 67.061 56.914 67.061 57.22C67.061 57.52 67.061 57.826 67.061 58.138C67.061 58.45 67.061 58.744 67.061 59.02C67.061 59.29 67.061 59.518 67.061 59.704C67.061 59.89 67.061 60.01 67.061 60.064C67.061 60.142 67.061 60.232 67.061 60.334C67.061 60.436 67.061 60.538 67.061 60.64C67.067 60.736 67.07 60.823 67.07 60.901C67.076 60.979 67.079 61.033 67.079 61.063H66.305C66.305 61.033 66.305 60.976 66.305 60.892C66.311 60.802 66.314 60.7 66.314 60.586C66.32 60.472 66.323 60.361 66.323 60.253C66.323 60.139 66.323 60.043 66.323 59.965C66.323 59.917 66.323 59.806 66.323 59.632C66.323 59.458 66.323 59.245 66.323 58.993C66.323 58.741 66.323 58.471 66.323 58.183C66.323 57.889 66.323 57.598 66.323 57.31C66.323 57.016 66.323 56.746 66.323 56.5C66.323 56.248 66.323 56.038 66.323 55.87C66.323 55.696 66.323 55.585 66.323 55.537C66.323 55.429 66.323 55.312 66.323 55.186C66.323 55.06 66.32 54.943 66.314 54.835ZM72.272 59.839V60.541H66.71V59.839H72.272Z" fill="black"/>
<path d="M23.25 94H18.7614V79.4545H23.4489C24.8598 79.4545 26.0672 79.7457 27.071 80.3281C28.0748 80.9058 28.8442 81.7367 29.3793 82.821C29.9143 83.9006 30.1818 85.1932 30.1818 86.6989C30.1818 88.214 29.9119 89.5185 29.3722 90.6122C28.8324 91.7012 28.0464 92.5393 27.0142 93.1264C25.982 93.7088 24.7273 94 23.25 94ZM20.5227 92.4375H23.1364C24.339 92.4375 25.3357 92.2055 26.1264 91.7415C26.9171 91.2775 27.5066 90.617 27.8949 89.7599C28.2831 88.9029 28.4773 87.8826 28.4773 86.6989C28.4773 85.5246 28.2855 84.5137 27.902 83.6662C27.5185 82.8139 26.9455 82.1605 26.1832 81.706C25.4209 81.2467 24.4716 81.017 23.3352 81.017H20.5227V92.4375ZM33.0494 79.4545L37.3675 91.6989H37.538L41.8562 79.4545H43.7028L38.3619 94H36.5437L31.2028 79.4545H33.0494ZM45.9684 94V79.4545H47.7298V86.6705H47.9002L54.4343 79.4545H56.7354L50.6275 86.017L56.7354 94H54.6048L49.5479 87.2386L47.7298 89.2841V94H45.9684ZM59.0153 94V79.4545H67.7937V81.017H60.7766V85.9318H67.3391V87.4943H60.7766V92.4375H67.9073V94H59.0153ZM75.2582 94.1989C74.4248 94.1989 73.6744 94.0331 73.0067 93.7017C72.3391 93.3703 71.8041 92.9157 71.4016 92.3381C70.9992 91.7604 70.779 91.1023 70.7411 90.3636H72.4457C72.512 91.0218 72.8103 91.5663 73.3406 91.9972C73.8756 92.4233 74.5148 92.6364 75.2582 92.6364C75.8548 92.6364 76.3851 92.4967 76.8491 92.2173C77.3178 91.938 77.6848 91.5545 77.9499 91.0668C78.2198 90.5743 78.3548 90.018 78.3548 89.3977C78.3548 88.7633 78.2151 88.1974 77.9357 87.7003C77.6611 87.1984 77.2823 86.803 76.7994 86.5142C76.3164 86.2254 75.7648 86.0786 75.1445 86.0739C74.6995 86.0691 74.2425 86.1378 73.7738 86.2798C73.305 86.4171 72.9192 86.5947 72.6161 86.8125L70.9684 86.6136L71.8491 79.4545H79.4059V81.017H73.3263L72.815 85.3068H72.9002C73.1985 85.0701 73.5726 84.8736 74.0224 84.7173C74.4722 84.5611 74.9409 84.483 75.4286 84.483C76.3188 84.483 77.1119 84.696 77.8079 85.1222C78.5086 85.5436 79.0579 86.1212 79.4556 86.8551C79.8581 87.589 80.0593 88.4271 80.0593 89.3693C80.0593 90.2973 79.851 91.1259 79.4343 91.8551C79.0224 92.5795 78.4542 93.1525 77.7298 93.5739C77.0053 93.9905 76.1815 94.1989 75.2582 94.1989Z" fill="black"/>
</svg>
