<svg width="243" height="36" viewBox="0 0 243 36" fill="none" xmlns="http://www.w3.org/2000/svg">
<path d="M2.08463 1.592L14.8526 32.648L27.6206 1.592H29.4926L15.7646 35H13.8926L0.164625 1.592H2.08463ZM38.6239 1.592L50.4799 19.448L62.2399 1.592H64.3519L51.3439 21.32V35H49.5679V21.32L36.5119 1.592H38.6239ZM85.9631 0.871999C88.4591 0.871999 90.7631 1.496 92.8751 2.744C94.9871 3.96 96.6511 5.624 97.8671 7.736C99.1151 9.848 99.7391 12.152 99.7391 14.648V21.944C99.7391 24.44 99.1151 26.744 97.8671 28.856C96.6511 30.968 94.9871 32.648 92.8751 33.896C90.7631 35.112 88.4591 35.72 85.9631 35.72C83.4671 35.72 81.1631 35.112 79.0511 33.896C76.9391 32.648 75.2591 30.968 74.0111 28.856C72.7951 26.744 72.1871 24.44 72.1871 21.944V14.648C72.1871 12.152 72.7951 9.848 74.0111 7.736C75.2591 5.624 76.9391 3.96 79.0511 2.744C81.1631 1.496 83.4671 0.871999 85.9631 0.871999ZM73.9631 21.944C73.9631 24.12 74.4911 26.136 75.5471 27.992C76.6351 29.816 78.0911 31.272 79.9151 32.36C81.7711 33.416 83.7871 33.944 85.9631 33.944C88.1391 33.944 90.1391 33.416 91.9631 32.36C93.8191 31.272 95.2751 29.816 96.3311 27.992C97.4191 26.136 97.9631 24.12 97.9631 21.944V14.648C97.9631 12.472 97.4191 10.472 96.3311 8.648C95.2751 6.792 93.8191 5.336 91.9631 4.28C90.1391 3.192 88.1391 2.648 85.9631 2.648C83.7871 2.648 81.7711 3.192 79.9151 4.28C78.0911 5.336 76.6351 6.792 75.5471 8.648C74.4911 10.472 73.9631 12.472 73.9631 14.648V21.944Z" fill="black"/>
<path d="M109.782 35H108.006V1.592H109.926L121.59 22.184L133.206 1.592H134.982V35H133.206V5.144L122.406 24.2H120.726L109.782 4.904V35Z" fill="url(#paint0_linear_2001_8)"/>
<path d="M156.114 1.592H157.986L171.714 35H169.794L165.282 23.96H148.818L144.258 35H142.386L156.114 1.592ZM149.538 22.232H164.562L157.026 3.896L149.538 22.232ZM199.805 2.696C201.725 3.592 203.229 4.92 204.317 6.68C205.437 8.44 205.997 10.392 205.997 12.536C205.997 15.032 205.229 17.272 203.693 19.256C202.189 21.208 200.253 22.504 197.885 23.144L206.381 35H204.269L196.061 23.48L194.525 23.528H182.477V35H180.701V1.592H193.421C194.829 1.592 196.029 1.688 197.021 1.88C198.045 2.04 198.973 2.312 199.805 2.696ZM195.005 21.752C196.669 21.752 198.205 21.336 199.613 20.504C201.021 19.672 202.141 18.552 202.973 17.144C203.805 15.736 204.221 14.2 204.221 12.536C204.221 10.68 203.725 9 202.733 7.496C201.773 5.992 200.429 4.872 198.701 4.136C197.453 3.624 195.693 3.368 193.421 3.368H182.477V21.752H195.005ZM215.272 1.592L228.04 32.648L240.808 1.592H242.68L228.952 35H227.08L213.352 1.592H215.272Z" fill="white"/>
<defs>
<linearGradient id="paint0_linear_2001_8" x1="108" y1="16" x2="135" y2="16" gradientUnits="userSpaceOnUse">
<stop/>
<stop offset="1" stop-color="white"/>
</linearGradient>
</defs>
</svg>
